<?xml version="1.0" standalone="no"?>
<!DOCTYPE svg PUBLIC "-//W3C//DTD SVG 20010904//EN"
 "http://www.w3.org/TR/2001/REC-SVG-20010904/DTD/svg10.dtd">
<svg version="1.0" xmlns="http://www.w3.org/2000/svg"
 width="512.000000pt" height="512.000000pt" viewBox="0 0 512.000000 512.000000"
 preserveAspectRatio="xMidYMid meet">

<g transform="translate(0.000000,512.000000) scale(0.100000,-0.100000)"
fill="#000000" stroke="none">
<path d="M3813 4886 c-76 -25 -118 -52 -228 -150 l-66 -60 -47 18 c-217 85
-426 49 -582 -100 -97 -93 -140 -200 -140 -350 0 -194 98 -346 276 -431 68
-32 87 -37 172 -40 63 -2 116 1 152 11 l55 14 -87 1 c-95 1 -180 23 -250 64
-61 36 -135 117 -166 185 -24 50 -27 69 -27 157 0 93 2 105 33 167 38 77 87
123 178 165 49 23 73 27 144 28 110 0 160 -19 261 -101 l78 -64 51 74 c131
195 252 263 395 221 76 -22 155 -97 174 -168 18 -64 9 -170 -24 -277 -45 -146
-47 -135 16 -124 207 33 335 -19 407 -164 34 -69 37 -84 37 -157 0 -67 -5 -89
-28 -136 -80 -163 -249 -252 -423 -220 -121 22 -235 100 -305 208 -34 53 -31
26 6 -47 77 -152 243 -252 420 -252 189 0 348 98 431 267 70 142 68 301 -5
450 -53 107 -184 210 -303 239 l-26 6 -4 132 c-3 119 -6 139 -30 190 -31 68
-105 149 -166 185 -58 34 -216 83 -267 83 -22 -1 -73 -11 -112 -24z"/>
<path d="M4362 4053 c66 -132 81 -171 102 -271 13 -62 26 -115 29 -118 3 -3
18 16 34 43 23 39 29 62 31 123 4 95 -21 149 -92 198 -43 28 -114 45 -104 25z"/>
<path d="M2903 3698 c-33 -51 -81 -132 -107 -180 l-47 -86 98 -7 c147 -10 242
-29 429 -89 247 -79 314 -109 645 -287 81 -44 149 -79 152 -79 9 0 34 91 57
213 29 158 27 164 -29 67 -78 -135 -65 -129 -146 -70 -299 217 -621 341 -932
357 -62 3 -113 9 -113 12 0 3 14 58 30 121 16 63 28 116 26 118 -2 1 -30 -39
-63 -90z"/>
<path d="M2276 3344 c-220 -25 -462 -95 -630 -182 -298 -153 -522 -431 -528
-656 -1 -36 1 -68 4 -72 17 -16 473 -23 1438 -22 569 0 1058 0 1085 -1 80 -3
339 20 353 31 17 15 16 170 -3 243 -28 107 -53 144 -181 271 -113 112 -133
127 -246 187 -322 170 -847 252 -1292 201z m364 -149 c10 -12 10 -18 0 -30
-16 -19 -25 -19 -45 1 -12 12 -13 19 -4 30 15 18 33 18 49 -1z m-430 -36 c0
-34 -19 -59 -45 -59 -52 0 -17 73 38 79 4 1 7 -8 7 -20z m222 -26 c19 -17 23
-49 9 -72 -11 -16 -45 0 -61 29 -13 24 -13 26 6 44 19 20 23 20 46 -1z m408
-37 c0 -21 -17 -37 -32 -31 -22 9 -32 53 -16 72 11 13 14 12 30 -7 10 -12 18
-27 18 -34z m300 19 c16 -19 1 -80 -20 -80 -16 0 -35 56 -27 79 8 20 31 20 47
1z m-1243 -51 c-7 -43 -23 -64 -49 -64 -30 0 -32 28 -4 65 37 48 61 47 53 -1z
m702 -65 c13 -39 13 -39 2 -39 -16 0 -41 31 -41 51 0 30 27 22 39 -12z m724
17 c3 -7 -7 -26 -22 -40 -24 -23 -30 -25 -40 -12 -10 12 -9 20 6 40 20 28 48
34 56 12z m-323 -25 c0 -21 -38 -54 -52 -45 -12 8 -10 38 4 52 19 19 48 15 48
-7z m-1395 -82 c7 -37 -13 -68 -35 -54 -13 8 -13 61 1 87 14 25 25 14 34 -33z
m555 6 c0 -33 -20 -55 -49 -55 -16 0 -13 42 5 68 23 34 44 28 44 -13z m1367
-1 c7 -18 -20 -44 -44 -44 -17 0 -27 25 -19 45 7 20 55 19 63 -1z m-1197 -50
c0 -25 -34 -59 -49 -49 -18 11 -12 53 11 75 24 22 38 13 38 -26z m517 14 c14
-18 23 -57 16 -73 -7 -20 -31 -7 -47 24 -21 40 6 81 31 49z m513 -88 c0 -9 -7
-25 -15 -36 -15 -19 -15 -19 -30 0 -20 27 -19 63 3 75 19 11 42 -10 42 -39z
m-1462 -22 c-2 -14 -16 -30 -38 -41 -34 -17 -35 -17 -38 4 -5 27 25 59 55 59
20 0 24 -4 21 -22z m1201 -12 c21 -25 -16 -66 -60 -66 -13 0 -1 40 19 63 18
21 26 21 41 3z m-478 -6 c25 -14 24 -26 -5 -45 -19 -13 -29 -14 -45 -5 -25 13
-26 23 -5 44 18 19 28 20 55 6z"/>
<path d="M1205 2373 c-76 -4 -95 -14 -95 -48 0 -53 -74 -50 1435 -49 1034 1
1408 5 1424 13 27 15 28 57 1 71 -20 11 -2608 23 -2765 13z"/>
<path d="M1698 2240 l-456 -5 -44 -30 c-57 -41 -60 -60 -11 -70 62 -11 155
-59 206 -106 30 -28 62 -72 86 -119 l38 -75 1156 1 1156 2 48 23 c72 37 106
86 111 163 7 102 -45 177 -143 206 -44 13 -1321 19 -2147 10z m1285 -72 c8
-29 5 -31 -27 -19 -39 15 -33 31 15 40 4 0 9 -9 12 -21z m187 -86 c0 -12 -70
-53 -80 -47 -16 10 -12 24 15 51 20 20 28 23 45 14 11 -6 20 -14 20 -18z m485
-2 c-10 -11 -23 -20 -28 -20 -6 0 -2 9 8 20 10 11 23 20 28 20 6 0 2 -9 -8
-20z m-1577 -18 c3 -10 -52 -42 -73 -42 -10 0 -5 36 7 48 16 16 60 12 66 -6z
m1852 -28 c0 -13 -18 -29 -26 -22 -2 3 -7 20 -10 39 l-7 34 21 -19 c12 -11 22
-25 22 -32z m-1330 -4 c0 -9 -31 -30 -44 -30 -3 0 -6 9 -6 20 0 15 7 20 25 20
14 0 25 -4 25 -10z m-336 -129 c7 -10 -17 -21 -42 -21 -15 1 -14 3 2 15 23 17
33 19 40 6z"/>
<path d="M894 2081 c-189 -51 -309 -157 -364 -322 -31 -90 -25 -228 13 -311
32 -70 44 -72 117 -18 29 22 55 38 57 36 2 -1 -13 -42 -32 -89 l-36 -85 -55
25 c-134 61 -303 13 -355 -101 -22 -49 -25 -143 -5 -189 18 -44 96 -113 142
-126 102 -28 231 -3 316 63 l36 27 89 -50 c152 -86 267 -100 378 -46 64 31
106 75 149 154 l33 63 6 -47 c9 -85 65 -136 155 -143 63 -4 110 10 174 55 l38
26 39 -36 c45 -40 90 -53 159 -43 136 19 258 139 393 389 35 64 68 116 74 114
21 -7 15 -48 -21 -138 -49 -126 -58 -236 -22 -288 42 -62 71 -76 151 -76 80 1
114 14 177 71 l38 35 20 -33 c21 -34 65 -65 109 -77 24 -6 22 -9 -33 -41 -108
-64 -155 -161 -119 -246 24 -57 53 -83 113 -100 144 -42 257 31 353 229 l49
102 74 39 c40 21 108 67 150 102 42 35 76 60 76 54 0 -21 77 -94 119 -113 56
-25 187 -33 264 -18 130 28 271 127 361 255 24 34 65 103 91 154 27 51 54 91
59 89 23 -7 16 -51 -20 -140 -29 -72 -38 -110 -41 -172 -4 -72 -2 -84 19 -114
37 -55 71 -74 136 -79 116 -8 192 47 320 237 73 108 76 133 23 169 -19 12 -42
21 -50 20 -9 -2 -47 -48 -84 -103 -37 -55 -79 -111 -92 -125 l-25 -25 0 23 c0
12 18 70 41 129 64 169 58 203 -52 291 -119 96 -112 86 -94 128 8 20 15 44 15
54 0 17 -84 70 -112 70 -26 0 -98 -62 -118 -101 -24 -46 -25 -76 -4 -129 l16
-40 -57 -107 c-96 -182 -152 -243 -263 -289 -76 -31 -173 -33 -202 -4 -11 11
-20 28 -20 39 0 17 10 19 102 23 86 3 111 8 154 30 88 46 142 119 165 227 48
223 -257 322 -477 155 -47 -37 -114 -131 -157 -225 -19 -42 -53 -103 -75 -136
-39 -58 -140 -158 -149 -149 -3 3 45 127 106 277 61 150 109 279 107 286 -4
10 -37 13 -124 13 -113 0 -120 -1 -135 -22 -14 -22 -16 -22 -34 -6 -57 51
-150 61 -229 24 -98 -46 -157 -116 -219 -266 -39 -92 -120 -221 -164 -264 -30
-29 -31 -29 -31 -7 0 12 18 70 41 129 64 168 58 202 -52 290 -119 96 -112 86
-94 128 24 57 20 68 -36 98 -62 35 -83 30 -143 -29 -55 -56 -66 -97 -43 -168
l16 -49 -76 -137 c-104 -189 -176 -281 -218 -281 -20 0 0 63 101 315 46 115
84 218 84 227 0 16 -12 18 -119 18 -83 0 -122 -4 -129 -12 -5 -7 -30 -65 -55
-129 -56 -144 -96 -223 -159 -316 -51 -76 -88 -108 -88 -77 0 10 43 125 95
256 52 131 95 248 95 258 0 19 -8 20 -119 20 -83 0 -121 -4 -128 -12 -5 -7
-47 -110 -94 -228 l-84 -214 -12 69 c-13 72 -52 163 -78 185 -13 10 -8 17 30
42 86 57 124 129 125 238 0 82 -12 126 -53 186 -70 105 -189 163 -347 170 -73
3 -111 0 -166 -15z m142 -200 c-3 -4 -18 -11 -33 -14 -43 -9 -116 -62 -150
-109 -17 -24 -46 -79 -64 -123 -18 -44 -36 -84 -39 -88 -4 -5 -13 13 -19 38
-31 124 79 264 232 294 58 12 79 13 73 2z m132 -31 c60 -37 77 -125 37 -186
-21 -32 -86 -64 -130 -64 -19 0 -35 2 -35 5 0 17 33 66 63 92 48 42 49 45 27
108 -11 32 -20 60 -20 62 0 9 29 1 58 -17z m2013 -406 c10 -13 6 -32 -31 -122
-53 -132 -60 -143 -109 -170 -34 -20 -40 -20 -51 -7 -27 32 38 200 107 275 38
43 63 50 84 24z m759 6 c0 -39 -66 -110 -101 -110 -31 0 -22 30 25 76 41 42
76 57 76 34z m-2872 -78 c125 -100 80 -279 -69 -276 -32 1 -149 46 -149 57 0
6 88 204 106 239 13 24 17 26 46 17 18 -5 48 -21 66 -37z m-543 -225 c17 -13
17 -15 -6 -30 -47 -34 -120 -10 -84 27 20 19 65 21 90 3z m2379 -412 c-6 -15
-35 -35 -50 -35 -4 0 3 11 16 25 26 28 42 33 34 10z"/>
<path d="M995 1253 c-22 -36 -42 -71 -44 -76 -5 -14 20 -27 55 -27 66 0 100
65 67 129 -10 19 -22 36 -28 38 -5 1 -28 -27 -50 -64z"/>
<path d="M3745 1763 c-138 -45 -207 -47 -320 -11 -149 48 -245 46 -403 -7 -82
-28 -174 -33 -226 -11 -45 19 -198 56 -230 56 -30 0 -31 -3 -11 -33 11 -17 12
-32 5 -62 -5 -22 -10 -44 -10 -50 0 -20 71 -56 161 -81 l91 -26 64 70 c84 92
148 125 242 124 37 0 87 -8 110 -16 33 -12 49 -13 64 -5 12 6 68 9 143 7 104
-2 126 -6 144 -22 25 -23 28 -71 6 -123 -8 -19 -15 -38 -15 -41 0 -4 30 23 68
59 37 36 80 73 95 83 51 31 139 56 199 56 64 0 71 8 33 45 -33 34 -73 31 -210
-12z"/>
<path d="M1735 1770 c-38 -11 -101 -27 -140 -36 -38 -9 -71 -17 -71 -18 -1 0
-5 -12 -9 -26 l-7 -25 27 25 c25 23 35 25 150 28 98 3 129 0 154 -12 17 -9 31
-21 31 -27 0 -6 14 1 31 15 29 24 37 26 132 26 56 -1 121 -5 144 -9 87 -17 50
4 -64 36 -155 44 -278 52 -378 23z"/>
<path d="M2730 1463 c0 -10 4 -24 9 -31 7 -11 9 -11 14 2 7 19 -1 46 -14 46
-5 0 -9 -8 -9 -17z"/>
<path d="M1380 1458 c1 -7 7 -24 15 -38 l13 -25 12 29 c6 16 13 33 16 37 3 5
-9 9 -25 9 -18 0 -31 -5 -31 -12z"/>
<path d="M2143 1390 c-17 -44 -30 -80 -28 -80 5 0 85 146 85 154 0 3 -6 6 -12
6 -7 0 -27 -36 -45 -80z"/>
<path d="M2240 1054 c-96 -124 -250 -205 -358 -189 -47 7 -116 37 -127 54 -3
6 -35 -4 -73 -22 -113 -53 -230 -39 -300 35 l-22 24 -47 -44 c-58 -56 -137
-92 -214 -99 -58 -6 -59 -6 -42 -25 9 -10 46 -33 82 -51 60 -30 75 -32 183
-36 252 -7 539 57 853 191 77 33 141 61 142 62 4 4 -31 146 -36 146 -3 -1 -22
-21 -41 -46z"/>
<path d="M4221 930 c-34 -28 -61 -54 -61 -58 0 -4 27 -34 60 -67 33 -33 60
-63 60 -68 0 -4 -47 -63 -104 -130 -57 -67 -102 -125 -100 -129 2 -3 39 -31
82 -61 89 -63 121 -95 155 -156 l25 -44 11 39 c25 94 41 175 50 252 5 46 11
85 13 87 7 7 165 -39 236 -67 l63 -26 -27 47 c-41 70 -138 211 -179 259 -37
43 -121 111 -187 150 l-36 23 -61 -51z"/>
<path d="M3390 896 l-115 -72 -43 -90 c-24 -49 -61 -110 -83 -136 -39 -46 -39
-48 -17 -52 235 -45 405 -114 598 -243 38 -25 73 -42 79 -39 20 13 402 467
399 475 -8 21 -170 161 -185 161 -10 0 -38 -6 -63 -14 -151 -45 -312 -22 -408
59 -16 14 -34 25 -38 24 -5 0 -61 -33 -124 -73z"/>
<path d="M2705 930 c-13 -21 -110 -62 -159 -67 -38 -4 -65 0 -104 16 -74 30
-108 27 -206 -19 -265 -121 -554 -196 -836 -215 -166 -12 -299 30 -404 126
-30 27 -56 49 -59 49 -10 0 15 -76 48 -145 84 -174 226 -282 452 -342 90 -24
115 -26 298 -27 209 -1 289 7 500 51 124 26 393 100 465 129 l41 17 -25 26
c-38 40 -66 110 -66 166 0 60 25 119 74 172 34 38 35 41 18 57 -22 19 -28 20
-37 6z m-141 -119 c11 -17 -6 -40 -31 -43 -40 -5 -50 -30 -33 -80 15 -43 15
-43 65 -43 39 0 50 -4 53 -18 4 -19 -49 -47 -88 -47 -55 0 -110 65 -110 131 0
32 28 77 58 93 30 17 78 21 86 7z m-186 -68 c5 -10 22 -55 37 -101 31 -89 28
-101 -20 -102 -17 0 -26 16 -53 97 -23 72 -29 100 -20 110 15 18 46 16 56 -4z
m-101 -40 c3 -7 -12 -19 -33 -28 -31 -13 -34 -17 -24 -30 7 -8 21 -15 32 -15
10 0 32 -7 48 -15 22 -12 30 -23 30 -43 0 -40 -23 -67 -75 -86 -51 -20 -75
-16 -75 13 0 14 10 21 37 28 53 12 52 30 -2 44 -68 17 -98 76 -57 111 37 33
111 46 119 21z m-179 -56 c3 -12 -5 -19 -27 -23 -45 -9 -38 -28 19 -52 37 -15
51 -27 56 -47 9 -36 -21 -74 -71 -92 -52 -18 -80 -14 -80 12 0 15 8 21 35 25
26 4 35 10 35 25 0 14 -9 21 -35 26 -37 8 -70 40 -70 68 0 28 29 60 63 70 45
13 71 9 75 -12z m-236 -34 c29 -35 99 -175 94 -189 -7 -19 -40 -18 -78 2 -29
15 -32 15 -57 -5 -82 -66 -99 -53 -76 60 25 131 33 144 86 148 9 0 23 -7 31
-16z m-355 -19 c8 -22 -12 -38 -49 -38 -30 -1 -34 -5 -42 -38 -14 -56 3 -86
51 -90 30 -2 39 -8 41 -24 6 -42 -104 -38 -143 6 -11 12 -20 41 -23 74 -4 48
-1 56 28 89 29 33 37 37 81 37 36 0 51 -4 56 -16z m113 -69 l5 -80 37 -3 c45
-4 66 -25 48 -47 -10 -12 -30 -15 -84 -13 l-71 3 -3 99 c-1 55 0 106 3 113 3
9 16 13 32 11 27 -3 28 -5 33 -83z"/>
<path d="M1820 518 c0 -18 5 -28 15 -28 19 0 19 11 0 36 -14 18 -14 18 -15 -8z"/>
</g>
</svg>
